<?xml version="1.0" encoding="utf-8"?>
<!-- Generator: Adobe Illustrator 16.0.0, SVG Export Plug-In . SVG Version: 6.00 Build 0)  -->
<!DOCTYPE svg PUBLIC "-//W3C//DTD SVG 1.1//EN" "http://www.w3.org/Graphics/SVG/1.1/DTD/svg11.dtd">
<svg version="1.1" id="Layer_1" xmlns="http://www.w3.org/2000/svg" xmlns:xlink="http://www.w3.org/1999/xlink" x="0px" y="0px"
	 width="820px" height="115px" viewBox="0 0 820 115" enable-background="new 0 0 820 115" xml:space="preserve">
<g>
	<path fill="#231F20" d="M26.763,86.167V32.644h53.523v42.819H37.467v10.704H26.763z M69.581,64.758V43.349H37.467v21.409H69.581z"
		/>
	<path fill="#231F20" d="M90.991,86.167V32.644h53.522v32.114h-10.705V43.349h-32.114v21.409h32.114v10.705h-32.114v10.704H90.991z
		 M133.809,86.167V75.463h10.705v10.704H133.809z"/>
	<path fill="#231F20" d="M155.218,86.167V32.644h53.523v53.523h-10.705V75.463h-32.114v10.704H155.218z M198.037,64.758V43.349
		h-32.114v21.409H198.037z"/>
	<path fill="#231F20" d="M219.445,86.167V75.463h21.41V43.349h-21.41V32.644h53.523v10.705h-21.41v32.114h21.41v10.704H219.445z"/>
	<path fill="#231F20" d="M283.673,86.167V75.463h42.818V64.758h-42.818V32.644h53.522v10.705h-42.818v10.705h42.818v32.114H283.673z
		"/>
	<path fill="#231F20" d="M385.367,86.167V32.644h53.523v53.523H385.367z M428.186,75.463V43.349h-32.114v32.114H428.186z"/>
	<path fill="#231F20" d="M487.061,86.167V32.644h53.522v53.523h-10.704V43.349h-32.114v42.818H487.061z"/>
	<path fill="#231F20" d="M551.288,86.167V32.644h53.523v53.523h-10.705V75.463h-32.114v10.704H551.288z M594.106,64.758V43.349
		h-32.114v21.409H594.106z"/>
	<path fill="#231F20" d="M636.925,86.167V43.349h-21.409V32.644h53.523v10.705h-21.41v42.818H636.925z"/>
	<path fill="#231F20" d="M679.744,86.167V32.644h53.523v53.523H679.744z M722.562,75.463V43.349h-32.114v32.114H722.562z"/>
	<path fill="#231F20" d="M743.972,86.167V32.644h53.522v32.114H786.79V43.349h-32.114v21.409h32.114v10.705h-32.114v10.704H743.972z
		 M786.79,86.167V75.463h10.704v10.704H786.79z"/>
</g>
<rect x="454.521" y="56.079" fill-rule="evenodd" clip-rule="evenodd" width="19.673" height="10.801"/>
<rect x="351.911" y="56.079" fill-rule="evenodd" clip-rule="evenodd" width="19.673" height="10.801"/>
<rect x="385.086" y="75.367" fill-rule="evenodd" clip-rule="evenodd" width="53.426" height="10.801"/>
<rect x="385.086" y="32.548" fill-rule="evenodd" clip-rule="evenodd" width="53.426" height="10.801"/>
<rect x="427.712" y="32.484" fill-rule="evenodd" clip-rule="evenodd" width="10.801" height="53.426"/>
<rect x="385.086" y="32.484" fill-rule="evenodd" clip-rule="evenodd" width="10.801" height="53.426"/>
<rect x="400.514" y="46.53" fill-rule="evenodd" clip-rule="evenodd" width="6.21" height="6.21"/>
<rect x="417.964" y="46.53" fill-rule="evenodd" clip-rule="evenodd" width="6.21" height="6.21"/>
<g>
	<rect x="400.514" y="59.444" fill-rule="evenodd" clip-rule="evenodd" width="6.21" height="6.211"/>
	<rect x="403.62" y="65.655" fill-rule="evenodd" clip-rule="evenodd" width="17.449" height="6.21"/>
	<rect x="417.964" y="59.444" fill-rule="evenodd" clip-rule="evenodd" width="6.21" height="6.211"/>
</g>
</svg>
